<svg width="971" height="197" viewBox="0 0 971 197" fill="none" xmlns="http://www.w3.org/2000/svg">
<g clip-path="url(#clip0)">
<path d="M130.287 104.21L92.3701 66.291L54.451 104.21L92.3701 142.129L130.287 104.21ZM92.3701 81.671L114.909 104.21L92.3701 126.751L69.8291 104.21L92.3701 81.671Z" fill="#F18636"/>
<path d="M142.134 104.21L92.3689 153.975L42.604 104.21L80.526 66.296H65.144L27.226 104.21L92.3689 169.353L157.512 104.21L80.526 27.22V42.602L142.134 104.21Z" fill="#F18636"/>
<path d="M80.526 0V15.378L169.358 104.21L92.368 181.2L15.383 104.21L53.302 66.291H37.923L0 104.21L92.367 196.577L184.735 104.21L80.526 0Z" fill="#F18636"/>
<path fill-rule="evenodd" clip-rule="evenodd" d="M653.752 81.731C657.2 62.551 672.973 49.857 689.742 49.857C705.167 49.857 714.442 58.934 714.442 74.175C714.226 75.995 714.111 77.787 714 79.556C713.892 80.316 713.784 81.049 713.663 81.77H653.752V81.731ZM364.252 69.708C362.452 42.719 342.226 27.198 308.811 27.198C298.431 27.198 282.25 28.998 266.97 32.172L257.837 59.611C272.044 54.358 293.611 50.687 303.567 50.687C320.867 50.687 334.515 59.316 332.058 77.981C323.225 77.336 314.733 76.875 309.813 76.875C263.652 76.875 237.265 94.358 239.17 123.614C240.611 145.772 258.846 158.834 284.553 160.663C313.598 162.745 339.988 156.611 354.309 147.679C357.209 127.966 360.101 108.279 363.118 88.511C364.13 82.298 364.509 75.9984 364.248 69.709L364.252 69.708ZM324.677 132.813C295.513 141.042 274.792 136.572 273.813 121.308C272.802 105.346 286.004 97.57 314.39 97.57C320.649 97.57 327.127 98.447 329.374 99.17C327.809 110.362 326.242 121.577 324.674 132.814L324.677 132.813ZM457.942 27.4C433.455 27.4 415.536 33.263 401.81 45.831C394.144 52.8127 388.012 61.3099 383.8 70.7848C379.589 80.2596 377.391 90.5055 377.345 100.874C377.345 118.779 383.381 133.521 393.887 143.883C404.393 154.245 419.493 160.275 437.578 160.819C449.648 161.025 461.708 159.999 473.571 157.759L473.982 157.681L483.304 129.666C473.463 133.006 460.604 135.62 449.56 134.806C429.328 133.278 414.121 118.974 414.121 97.865C414.121 71.865 433.331 53.027 461.067 53.027C469.781 53.027 479.944 55.189 490.108 59.275C492.621 51.675 498.268 34.753 498.268 34.753C486.983 30.039 473.233 27.4 457.942 27.4ZM817.217 27.331C784.254 27.331 762.017 43.059 762.017 66.468C762.017 83.56 771.51 91.788 790.168 101.833L793.868 103.807C805.268 109.891 812.185 113.573 812.185 121.286C812.185 130.46 802.474 135.698 785.376 135.698C773.385 135.755 761.556 132.935 750.881 127.473L742.449 152.815C757.374 158.135 773.093 160.884 788.938 160.944C823.708 160.944 847.182 144.465 847.182 120.038C847.182 102.977 837.248 94.09 820.031 84.66C817.715 83.389 815.326 82.195 813.088 80.95C801.909 75.057 795.663 71.782 795.663 64.503C795.663 56.209 804.263 51.05 818.007 51.05C828.731 51.05 840.471 53.978 851.084 59.067L859.25 34.55C844.47 29.835 830.134 27.331 817.217 27.331ZM577.893 27.4C553.402 27.4 535.485 33.263 521.757 45.831C514.092 52.813 507.96 61.3104 503.75 70.7852C499.539 80.26 497.341 90.5058 497.296 100.874C497.296 118.779 503.33 133.521 513.836 143.883C524.342 154.245 539.436 160.275 557.527 160.819C569.6 161.025 581.662 159.999 593.527 157.759L593.936 157.681L603.251 129.666C593.416 133.006 580.551 135.62 569.514 134.806C549.278 133.278 534.075 118.974 534.075 97.865C534.075 71.865 553.285 53.027 581.017 53.027C589.731 53.027 599.899 55.189 610.06 59.275C612.578 51.673 618.217 34.75 618.217 34.75C606.932 30.039 593.188 27.4 577.897 27.4H577.893ZM928.901 27.331C895.941 27.331 873.696 43.059 873.696 66.468C873.696 83.56 883.191 91.788 901.849 101.833L905.544 103.807C916.944 109.891 923.861 113.573 923.861 121.286C923.861 130.46 914.152 135.698 897.054 135.698C885.062 135.756 873.23 132.935 862.554 127.473L854.12 152.815C869.047 158.138 884.769 160.889 900.617 160.95C935.387 160.95 958.861 144.471 958.861 120.044C958.861 102.983 948.927 94.096 931.712 84.666C929.394 83.395 927.004 82.201 924.769 80.956C913.588 75.063 907.344 71.788 907.344 64.509C907.344 56.215 915.944 51.056 929.688 51.056C940.41 51.056 952.151 53.984 962.765 59.073L970.929 34.556C956.153 29.835 941.817 27.331 928.905 27.331H928.901ZM726.292 128.388C714.442 132.877 696.892 136.571 685.27 136.571C662.376 136.571 649.29 125.834 649.29 107.106C649.29 105.762 649.29 104.418 649.4 103.048H741.827C743.399 93.798 744.511 84.77 744.511 78.189C744.511 46.589 724.398 26.949 692.211 26.949C669.172 26.949 652.258 33.691 637.664 48.891C623.865 63.3942 616.144 82.6312 616.087 102.65C616.087 138.833 639.896 161.316 678.127 161.316C691.373 161.237 704.542 159.302 717.251 155.568C720.266 146.473 723.277 137.441 726.292 128.388Z" fill="white"/>
</g>
<defs>
<clipPath id="clip0">
<rect width="970.929" height="196.577" fill="white"/>
</clipPath>
</defs>
</svg>
